<?xml version="1.0" encoding="utf-8"?>
<!-- Generator: Adobe Illustrator 23.0.3, SVG Export Plug-In . SVG Version: 6.00 Build 0)  -->
<svg version="1.1" id="Capa_1" xmlns="http://www.w3.org/2000/svg" xmlns:xlink="http://www.w3.org/1999/xlink" x="0px" y="0px"
	 viewBox="0 0 1280 1280" style="enable-background:new 0 0 1280 1280;" xml:space="preserve">
<style type="text/css">
	.st0{fill:#363F40;}
</style>
<path class="st0" d="M447.3,1156c-0.4,0-0.8,0-1.2,0H435l11.2,0H447.3z"/>
<g>
	<g>
		<g>
			<path class="st0" d="M1016.1,452h-34.2v-51.3c0-28.3-23-51.3-51.3-51.3H776.8v-34.2h153.8c47.1,0,85.5,38.3,85.5,85.5V452z"/>
			<path class="st0" d="M1084.4,452h-34.2v-51.3c0-66-53.7-119.7-119.7-119.7H776.8v-34.2h153.8c84.8,0,153.8,69,153.8,153.8V452z"
				/>
			<g>
				<path class="st0" d="M161.4,622.9h-17.1c-28.3,0-51.3-23-51.3-51.3V195.6c0-28.3,23-51.3,51.3-51.3h547
					c28.3,0,51.3,23,51.3,51.3V452h-34.2V195.6c0-9.4-7.7-17.1-17.1-17.1h-547c-9.4,0-17.1,7.7-17.1,17.1v376.1
					c0,9.4,7.7,17.1,17.1,17.1h17.1V622.9z"/>
				<path class="st0" d="M485.5,459.6l-30.6-15.2c9.4-19,14.2-39.4,14.2-60.8c0-75.4-61.3-136.8-136.8-136.8
					s-136.8,61.3-136.8,136.8c0,21.4,4.8,41.8,14.2,60.7l-30.6,15.2c-11.8-23.7-17.8-49.3-17.8-76c0-94.2,76.7-170.9,170.9-170.9
					s170.9,76.7,170.9,170.9C503.3,410.3,497.3,435.8,485.5,459.6z"/>
				<rect x="537.4" y="383.6" class="st0" width="136.8" height="34.2"/>
				<rect x="537.4" y="315.2" class="st0" width="136.8" height="34.2"/>
				<rect x="537.4" y="246.8" class="st0" width="136.8" height="34.2"/>
				<path class="st0" d="M250.3,445.2c-13.4-17.9-20.6-39.2-20.6-61.6c0-56.6,46-102.6,102.6-102.6s102.6,46,102.6,102.6
					c0,22.4-7.1,43.7-20.5,61.5L387,424.6c8.9-11.9,13.7-26.1,13.7-41c0-37.7-30.7-68.4-68.4-68.4s-68.4,30.7-68.4,68.4
					c0,15,4.7,29.2,13.7,41.1L250.3,445.2z"/>
				<rect x="315.2" y="366.5" class="st0" width="34.2" height="34.2"/>
			</g>
			<path class="st0" d="M1084.4,879.3h-34.2v-68.4c0-9.4-7.7-17.1-17.1-17.1H349.4c-9.4,0-17.1,7.7-17.1,17.1v68.4h-34.2v-68.4
				c0-28.3,23-51.3,51.3-51.3h683.8c28.3,0,51.3,23,51.3,51.3V879.3z"/>
			<path class="st0" d="M1135.7,896.4H246.8c-28.3,0-51.3-23-51.3-51.3V537.4c0-28.3,23-51.3,51.3-51.3h888.9
				c28.3,0,51.3,23,51.3,51.3v307.7C1187,873.4,1164,896.4,1135.7,896.4z M246.8,520.3c-9.4,0-17.1,7.7-17.1,17.1v307.7
				c0,9.4,7.7,17.1,17.1,17.1h888.9c9.4,0,17.1-7.7,17.1-17.1V537.4c0-9.4-7.7-17.1-17.1-17.1H246.8z"/>
			<rect x="298.1" y="554.5" class="st0" width="786.3" height="34.2"/>
			<rect x="298.1" y="622.9" class="st0" width="786.3" height="34.2"/>
			<rect x="674.2" y="691.3" class="st0" width="34.2" height="34.2"/>
			<rect x="605.8" y="691.3" class="st0" width="34.2" height="34.2"/>
			<rect x="742.6" y="691.3" class="st0" width="34.2" height="34.2"/>
			<rect x="674.2" y="930.6" class="st0" width="34.2" height="188"/>
			<path class="st0" d="M691.3,1135.7c-4.4,0-8.7-1.7-12.1-5l-51.3-51.3l24.2-24.2l39.2,39.2l39.2-39.2l24.2,24.2l-51.3,51.3
				C700,1134,695.7,1135.7,691.3,1135.7z"/>
			<rect x="862.2" y="930.6" class="st0" width="34.2" height="188"/>
			<path class="st0" d="M879.3,1135.7c-4.4,0-8.7-1.7-12.1-5l-51.3-51.3l24.2-24.2l39.2,39.2l39.2-39.2l24.2,24.2l-51.3,51.3
				C888.1,1134,883.7,1135.7,879.3,1135.7z"/>
			<rect x="486.2" y="930.6" class="st0" width="34.2" height="188"/>
			<path class="st0" d="M503.3,1135.7c-4.4,0-8.7-1.7-12.1-5l-51.3-51.3l24.2-24.2l39.2,39.2l39.2-39.2l24.2,24.2l-51.3,51.3
				C512,1134,507.6,1135.7,503.3,1135.7z"/>
		</g>
	</g>
</g>
</svg>
