<?xml version="1.0" encoding="utf-8"?>
<!-- Generator: Adobe Illustrator 23.0.3, SVG Export Plug-In . SVG Version: 6.00 Build 0)  -->
<svg version="1.1" id="Capa_1" xmlns="http://www.w3.org/2000/svg" xmlns:xlink="http://www.w3.org/1999/xlink" x="0px" y="0px"
	 viewBox="0 0 1280 1280" style="enable-background:new 0 0 1280 1280;" xml:space="preserve">
<style type="text/css">
	.st0{fill:#363F40;}
</style>
<path class="st0" d="M447.3,1156c-0.4,0-0.8,0-1.2,0H435l11.2,0H447.3z"/>
<g>
	<path class="st0" d="M607.8,833.1c-159.7,0-289.7-130-289.7-289.7s130-289.7,289.7-289.7s289.7,130,289.7,289.7
		S767.5,833.1,607.8,833.1z M607.8,285.9c-142,0-257.5,115.5-257.5,257.5s115.5,257.5,257.5,257.5s257.5-115.5,257.5-257.5
		S749.8,285.9,607.8,285.9z"/>
	<path class="st0" d="M736.6,1155H479.1c-8.9,0-16.1-7.2-16.1-16.1V865.3h32.2v257.5h225.3v-338h32.2v354.1
		C752.7,1147.8,745.5,1155,736.6,1155z"/>
	<path class="st0" d="M800.9,1122.8h-64.4v-32.2h48.3V897.5h-48.3v-32.2h64.4c8.9,0,16.1,7.2,16.1,16.1v225.3
		C817,1115.6,809.8,1122.8,800.9,1122.8z"/>
	<path class="st0" d="M809.4,1072.1l-16.9-27.4l201.6-124V607.8h32.2v321.9c0,5.6-2.9,10.8-7.7,13.7L809.4,1072.1z"/>
	<path class="st0" d="M1010.2,623.9c-44.4,0-80.5-36.1-80.5-80.5s36.1-80.5,80.5-80.5s80.5,36.1,80.5,80.5
		S1054.5,623.9,1010.2,623.9z M1010.2,495.2c-26.6,0-48.3,21.7-48.3,48.3s21.7,48.3,48.3,48.3c26.6,0,48.3-21.7,48.3-48.3
		S1036.8,495.2,1010.2,495.2z"/>
	
		<rect x="796.1" y="897.5" transform="matrix(0.9558 -0.2939 0.2939 0.9558 -228.5001 306.4643)" class="st0" width="218.9" height="32.2"/>
	<rect x="527.3" y="897.5" class="st0" width="32.2" height="32.2"/>
	<rect x="591.7" y="897.5" class="st0" width="32.2" height="32.2"/>
	<rect x="656.1" y="897.5" class="st0" width="32.2" height="32.2"/>
	<rect x="527.3" y="961.9" class="st0" width="32.2" height="32.2"/>
	<rect x="591.7" y="961.9" class="st0" width="32.2" height="32.2"/>
	<rect x="656.1" y="961.9" class="st0" width="32.2" height="32.2"/>
	<rect x="527.3" y="1026.3" class="st0" width="32.2" height="32.2"/>
	<rect x="591.7" y="1026.3" class="st0" width="32.2" height="32.2"/>
	<rect x="656.1" y="1026.3" class="st0" width="32.2" height="32.2"/>
	<path class="st0" d="M607.8,607.8c-35.5,0-64.4-28.9-64.4-64.4s28.9-64.4,64.4-64.4s64.4,28.9,64.4,64.4S643.3,607.8,607.8,607.8z
		 M607.8,511.3c-17.8,0-32.2,14.4-32.2,32.2s14.4,32.2,32.2,32.2s32.2-14.4,32.2-32.2S625.6,511.3,607.8,511.3z"/>
	<path class="st0" d="M607.8,768.8v-32.2c106.5,0,193.1-86.6,193.1-193.1h32.2C833.1,667.7,732.1,768.8,607.8,768.8z"/>
	<path class="st0" d="M414.7,543.4h-32.2c0-124.2,101.1-225.3,225.3-225.3v32.2C501.3,350.3,414.7,436.9,414.7,543.4z"/>
	<rect x="591.7" y="125" class="st0" width="32.2" height="96.6"/>
	<rect x="189.4" y="527.3" class="st0" width="96.6" height="32.2"/>
	
		<rect x="261.8" y="295.2" transform="matrix(0.5102 -0.86 0.86 0.5102 -158.0243 406.5106)" class="st0" width="32.2" height="93.6"/>
	
		<rect x="405.5" y="167.2" transform="matrix(0.8683 -0.4961 0.4961 0.8683 -50.3913 237.2791)" class="st0" width="32.2" height="92.7"/>
	
		<rect x="231.1" y="712.2" transform="matrix(0.8601 -0.5101 0.5101 0.8601 -332.6114 243.6342)" class="st0" width="93.6" height="32.2"/>
	
		<rect x="888.6" y="325.9" transform="matrix(0.8601 -0.5101 0.5101 0.8601 -43.5985 525.0157)" class="st0" width="93.6" height="32.2"/>
	
		<rect x="745.4" y="197.4" transform="matrix(0.4961 -0.8682 0.8682 0.4961 213.5383 795.0119)" class="st0" width="92.7" height="32.2"/>
</g>
</svg>
