<?xml version="1.0" encoding="utf-8"?>
<!-- Generator: Adobe Illustrator 23.0.3, SVG Export Plug-In . SVG Version: 6.00 Build 0)  -->
<svg version="1.1" id="Capa_1" xmlns="http://www.w3.org/2000/svg" xmlns:xlink="http://www.w3.org/1999/xlink" x="0px" y="0px"
	 viewBox="0 0 1280 1280" style="enable-background:new 0 0 1280 1280;" xml:space="preserve">
<style type="text/css">
	.st0{fill:#363F40;}
</style>
<g>
	<g>
		<path class="st0" d="M1174.2,398.7H105.8c-9.5,0-17.2-7.7-17.2-17.2V260.9c0-76,61.8-137.9,137.9-137.9h827.2
			c76,0,137.9,61.8,137.9,137.9v120.6C1191.5,391,1183.8,398.7,1174.2,398.7z M123,364.3h1034V260.9c0-57-46.4-103.4-103.4-103.4
			H226.4c-57,0-103.4,46.4-103.4,103.4V364.3z"/>
		<g>
			<path class="st0" d="M1088.1,950.2h-34.5V398.7H226.4v551.5h-34.5V381.5c0-9.5,7.7-17.2,17.2-17.2h861.7
				c9.5,0,17.2,7.7,17.2,17.2V950.2z"/>
		</g>
		<rect x="674.5" y="519.4" class="st0" width="34.5" height="51.7"/>
		<rect x="571.1" y="519.4" class="st0" width="34.5" height="51.7"/>
		<path class="st0" d="M726.2,950.2H553.8c-6.2,0-11.9-3.3-15-8.7c-2.9-5.1-71.2-126.4-71.2-284.3c0-9.5,7.7-17.2,17.2-17.2h310.2
			c9.5,0,17.2,7.7,17.2,17.2c0,157.9-68.3,279.2-71.2,284.3C738.1,946.9,732.4,950.2,726.2,950.2z M564.2,915.7h151.5
			c14.4-28.5,57.8-123.8,61.8-241.3H502.4C506.4,792.2,549.9,887.3,564.2,915.7z"/>
		<g>
			<path class="st0" d="M743.4,536.6H536.6c-38,0-68.9-30.9-68.9-68.9v-86.2c0-9.5,7.7-17.2,17.2-17.2h310.2
				c9.5,0,17.2,7.7,17.2,17.2v86.2C812.3,505.7,781.4,536.6,743.4,536.6z M502.1,398.7v68.9c0,19,15.5,34.5,34.5,34.5h206.8
				c19,0,34.5-15.5,34.5-34.5v-68.9H502.1z"/>
		</g>
		<g>
			<path class="st0" d="M898.5,1019.1h-517c-9.5,0-17.2-7.7-17.2-17.2c0-47.5,38.7-86.2,86.2-86.2h379.1c47.5,0,86.2,38.7,86.2,86.2
				C915.7,1011.4,908,1019.1,898.5,1019.1z M401.7,984.7h476.6c-7.1-20.1-26.3-34.5-48.7-34.5H450.4
				C428,950.2,408.8,964.6,401.7,984.7z"/>
		</g>
		<path class="st0" d="M795.1,329.8H484.9c-9.5,0-17.2-7.7-17.2-17.2V209.2c0-9.5,7.7-17.2,17.2-17.2h310.2
			c9.5,0,17.2,7.7,17.2,17.2v103.4C812.3,322.1,804.6,329.8,795.1,329.8z M502.1,295.3h275.7v-68.9H502.1V295.3z"/>
		<rect x="398.7" y="243.6" class="st0" width="34.5" height="34.5"/>
		<rect x="329.8" y="243.6" class="st0" width="34.5" height="34.5"/>
		<rect x="260.9" y="243.6" class="st0" width="34.5" height="34.5"/>
		<rect x="984.7" y="243.6" class="st0" width="34.5" height="34.5"/>
		<rect x="915.7" y="243.6" class="st0" width="34.5" height="34.5"/>
		<rect x="846.8" y="243.6" class="st0" width="34.5" height="34.5"/>
		<rect x="536.6" y="1053.6" class="st0" width="206.8" height="34.5"/>
		<path class="st0" d="M829.6,846.8h-51.7v-34.5h51.7c9.5,0,17.2-7.7,17.2-17.2v-68.9c0-9.5-7.7-17.2-17.2-17.2h-34.5v-34.5h34.5
			c28.5,0,51.7,23.2,51.7,51.7v68.9C881.3,823.6,858.1,846.8,829.6,846.8z"/>
		<rect x="88.5" y="1122.5" class="st0" width="1102.9" height="34.5"/>
		<path class="st0" d="M1083,1152l-24.4-24.4l98.4-98.4v-10.1H123v10.1l98.4,98.4L197,1152L93.6,1048.6c-3.2-3.2-5-7.6-5-12.2v-34.5
			c0-9.5,7.7-17.2,17.2-17.2h1068.5c9.5,0,17.2,7.7,17.2,17.2v34.5c0,4.6-1.8,9-5,12.2L1083,1152z"/>
	</g>
</g>
</svg>
