<?xml version="1.0" encoding="utf-8"?>
<!-- Generator: Adobe Illustrator 23.0.3, SVG Export Plug-In . SVG Version: 6.00 Build 0)  -->
<svg version="1.1" id="Capa_1" xmlns="http://www.w3.org/2000/svg" xmlns:xlink="http://www.w3.org/1999/xlink" x="0px" y="0px"
	 viewBox="0 0 1280 1280" style="enable-background:new 0 0 1280 1280;" xml:space="preserve">
<style type="text/css">
	.st0{fill:#363F40;}
</style>
<g>
	<g>
		<rect x="333.1" y="621.3" class="st0" width="34.4" height="413.3"/>
		<rect x="918.5" y="621.3" class="st0" width="34.4" height="413.3"/>
		<rect x="522.5" y="604.1" class="st0" width="34.4" height="309.9"/>
		<rect x="729.1" y="604.1" class="st0" width="34.4" height="309.9"/>
		<path class="st0" d="M401.9,638.6H298.6C184.7,638.6,92,545.9,92,431.9s92.7-206.6,206.6-206.6S505.3,318,505.3,431.9h-34.4
			c0-94.9-77.2-172.2-172.2-172.2S126.4,337,126.4,431.9s77.2,172.2,172.2,172.2h103.3V638.6z"/>
		<path class="st0" d="M987.4,638.6H884.1v-34.4h103.3c94.9,0,172.2-77.2,172.2-172.2s-77.2-172.2-172.2-172.2
			S815.2,337,815.2,431.9h-34.4c0-113.9,92.7-206.6,206.6-206.6S1194,318,1194,431.9S1101.3,638.6,987.4,638.6z"/>
		<rect x="625.8" y="1017.4" class="st0" width="34.4" height="34.4"/>
		<rect x="556.9" y="1017.4" class="st0" width="34.4" height="34.4"/>
		<rect x="694.7" y="1017.4" class="st0" width="34.4" height="34.4"/>
		<path class="st0" d="M898.8,277h-34.4c0-74.7-129-120.5-221.4-120.5c-91.3,0-223.8,47-223.8,120.5h-34.4
			c0-101.1,150-155,258.3-155C750.3,122,898.8,175.9,898.8,277z"/>
		<path class="st0" d="M952.9,1155.1H333.1c-19,0-34.4-15.4-34.4-34.4v-68.9c0-19,15.4-34.4,34.4-34.4h189.4v34.4H333.1v68.9h619.9
			v-68.9H763.5v-34.4h189.4c19,0,34.4,15.4,34.4,34.4v68.9C987.4,1139.7,971.9,1155.1,952.9,1155.1z"/>
	</g>
</g>
</svg>
