<?xml version="1.0" encoding="utf-8"?>
<!-- Generator: Adobe Illustrator 23.1.0, SVG Export Plug-In . SVG Version: 6.00 Build 0)  -->
<svg version="1.1" id="Capa_1" xmlns="http://www.w3.org/2000/svg" xmlns:xlink="http://www.w3.org/1999/xlink" x="0px" y="0px"
	 viewBox="0 0 1280 1280" style="enable-background:new 0 0 1280 1280;" xml:space="preserve">
<style type="text/css">
	.st0{fill:#363F40;}
</style>
<path class="st0" d="M447.3,1156c-0.4,0-0.8,0-1.2,0H435h11.2H447.3z"/>
<g>
	<g>
		<g>
			<path class="st0" d="M526,267.4c-10.5,0-19,8.5-19,19c0,10.5,8.5,19,19,19s19-8.5,19-19C545,276,536.4,267.4,526,267.4z"/>
		</g>
	</g>
	<g>
		<g>
			<path class="st0" d="M640,419.5c-10.5,0-19-8.5-19-19c0-10.5,8.5-19,19-19c6.7,0,13.8,3.4,20.6,9.9c7.5,7.3,19.6,7.1,26.9-0.4
				c7.3-7.5,7.1-19.6-0.4-26.9c-9.6-9.3-19.3-14.6-28-17.5v-22.1c0-10.5-8.5-19-19-19s-19,8.5-19,19v22.3c-22.1,7.8-38,29-38,53.8
				c0,31.4,25.6,57,57,57c10.5,0,19,8.5,19,19c0,10.5-8.5,19-19,19c-8.1,0-16.9-5.1-24.7-14.4c-6.8-8-18.7-9.1-26.8-2.3
				c-8,6.8-9.1,18.7-2.3,26.8c10.2,12.1,22.1,20.5,34.8,24.8v22.2c0,10.5,8.5,19,19,19s19-8.5,19-19v-22.3c22.1-7.8,38-29,38-53.8
				C697,445.1,671.4,419.5,640,419.5z"/>
		</g>
	</g>
	<g>
		<g>
			<path class="st0" d="M1050.6,430.9c-41.9,0-76,34.1-76,76v135.5c-25.3-6.5-53.1,0.2-72.8,19.9L774.3,789.8
				c-18,17.9-27.9,41.8-27.9,67.2v111.9h-19c-10.5,0-19,8.5-19,19v119.8c0,10.5,8.5,19,19,19h266.1c10.5,0,19-8.5,19-19V987.8
				c0-10.5-8.5-19-19-19h-19v-9c0-5,2-9.9,5.6-13.4l118.6-118.6c18-18,27.8-41.8,27.8-67.2V506.9
				C1126.6,465,1092.5,430.9,1050.6,430.9z M974.5,1088.6H746.4v-81.7h228.1V1088.6z M1088.6,760.6c0,15.2-5.9,29.6-16.7,40.3
				L953.2,919.5c-10.6,10.6-16.7,25.3-16.7,40.3v9H784.5V857c0-15.2,5.9-29.6,16.7-40.3l127.5-127.5c14.3-14.3,37.2-14.9,52.2-1.5
				c0.1,0.1,0.2,0.2,0.3,0.3c0.4,0.4,0.8,0.8,1.3,1.2c7.2,7.2,11.1,16.7,11.1,26.9s-4,19.7-11.1,26.9L888,837.4
				c-7.4,7.4-7.4,19.5,0,26.9c7.4,7.4,19.5,7.4,26.9,0l94.4-94.4c14.4-14.4,22.3-33.5,22.3-53.8c0-18.7-6.7-36.4-19-50.3V506.9
				c0-21,17.1-38,38-38s38,17.1,38,38V760.6z"/>
		</g>
	</g>
	<g>
		<g>
			<path class="st0" d="M552.6,968.8h-19V857c0-25.4-9.9-49.3-27.8-67.2L378.2,662.3c-19.7-19.7-47.5-26.4-72.8-19.9V506.9
				c0-41.9-34.1-76-76-76s-76,34.1-76,76v253.6c0,25.4,9.9,49.3,27.8,67.2l118.6,118.6c3.5,3.5,5.6,8.4,5.6,13.4v9h-19
				c-10.5,0-19,8.5-19,19v119.8c0,10.5,8.5,19,19,19h266.1c10.5,0,19-8.5,19-19V987.8C571.6,977.3,563.1,968.8,552.6,968.8z
				 M208.1,800.9c-10.8-10.8-16.7-25.1-16.7-40.3V506.9c0-21,17.1-38,38-38s38,17.1,38,38v158.8c-12.3,13.9-19,31.6-19,50.3
				c0,20.3,7.9,39.4,22.3,53.8l95,95c7.4,7.4,19.5,7.4,26.9,0c7.4-7.4,7.4-19.5,0-26.9l-95-95c-7.2-7.2-11.1-16.7-11.1-26.9
				s4-19.7,11.1-26.9c0.4-0.4,0.8-0.8,1.3-1.2l0.3-0.3c15-13.5,37.9-12.8,52.2,1.5l127.5,127.5c10.8,10.8,16.7,25.1,16.7,40.3v111.9
				H343.5v-9c0-15-6.1-29.7-16.7-40.3L208.1,800.9z M533.6,1088.6H305.5v-81.7h228.1V1088.6z"/>
		</g>
	</g>
	<g>
		<g>
			<path class="st0" d="M640,153.4c-157.2,0-285.1,127.9-285.1,285.1S482.8,723.6,640,723.6s285.1-127.9,285.1-285.1
				S797.2,153.4,640,153.4z M640,685.6c-136.3,0-247.1-110.9-247.1-247.1S503.7,191.4,640,191.4s247.1,110.9,247.1,247.1
				S776.3,685.6,640,685.6z"/>
		</g>
	</g>
	<g>
		<g>
			<path class="st0" d="M771.3,275.7c-49.5-39.9-114.2-55-177.6-41.3c-10.3,2.2-16.8,12.3-14.6,22.6c2.2,10.3,12.3,16.8,22.6,14.6
				c52.1-11.2,105.2,1.1,145.7,33.7c40.5,32.7,63.7,81.2,63.7,133.2c0,94.3-76.7,171.1-171.1,171.1s-171.1-76.7-171.1-171.1
				c0-28.2,7-56.1,20.2-80.8c5-9.2,1.5-20.8-7.8-25.7c-9.3-5-20.8-1.5-25.7,7.8c-16.2,30.2-24.7,64.3-24.7,98.7
				c0,115.3,93.8,209.1,209.1,209.1s209.1-93.8,209.1-209.1C849.1,375,820.7,315.7,771.3,275.7z"/>
		</g>
	</g>
</g>
</svg>
