<?xml version="1.0" encoding="utf-8"?>
<!-- Generator: Adobe Illustrator 23.0.3, SVG Export Plug-In . SVG Version: 6.00 Build 0)  -->
<svg version="1.1" id="Capa_1" xmlns="http://www.w3.org/2000/svg" xmlns:xlink="http://www.w3.org/1999/xlink" x="0px" y="0px"
	 viewBox="0 0 1280 1280" style="enable-background:new 0 0 1280 1280;" xml:space="preserve">
<style type="text/css">
	.st0{fill:#363F40;}
</style>
<g>
	<g>
		<polygon class="st0" points="1034.5,513.8 245.5,513.8 245.5,419.1 277,419.1 277,482.2 1003,482.2 1003,419.1 1034.5,419.1 		"/>
		<g>
			<polygon class="st0" points="340.2,371.7 308.6,371.7 308.6,229.7 371.7,229.7 371.7,261.3 340.2,261.3 			"/>
			<polygon class="st0" points="971.4,371.7 939.8,371.7 939.8,261.3 908.3,261.3 908.3,229.7 971.4,229.7 			"/>
			<polygon class="st0" points="876.7,387.5 845.2,387.5 845.2,166.6 434.8,166.6 434.8,387.5 403.3,387.5 403.3,135 876.7,135 			
				"/>
		</g>
		<path class="st0" d="M1145,955.6H908.3v-31.6h205.2v-505c0-17.4-14.2-31.6-31.6-31.6H908.3v-31.6h173.6
			c34.8,0,63.1,28.3,63.1,63.1V955.6z"/>
		<rect x="466.4" y="355.9" class="st0" width="347.2" height="31.6"/>
		<path class="st0" d="M371.7,955.6H135V419.1c0-34.8,28.3-63.1,63.1-63.1h173.6v31.6H198.1c-17.4,0-31.6,14.2-31.6,31.6v505h205.2
			V955.6z"/>
		<g>
			<rect x="624.2" y="703.1" class="st0" width="31.6" height="31.6"/>
			<rect x="687.3" y="703.1" class="st0" width="31.6" height="31.6"/>
			<rect x="561.1" y="703.1" class="st0" width="31.6" height="31.6"/>
		</g>
		<rect x="939.8" y="419.1" class="st0" width="31.6" height="31.6"/>
		<rect x="308.6" y="419.1" class="st0" width="410.3" height="31.6"/>
		<polygon class="st0" points="876.7,1145 403.3,1145 403.3,860.9 434.8,860.9 434.8,1113.4 845.2,1113.4 845.2,860.9 876.7,860.9 
					"/>
		<rect x="466.4" y="1050.3" class="st0" width="126.3" height="31.6"/>
		<rect x="466.4" y="955.6" class="st0" width="347.2" height="31.6"/>
		<rect x="466.4" y="892.5" class="st0" width="347.2" height="31.6"/>
		<polygon class="st0" points="971.4,892.5 908.3,892.5 908.3,860.9 939.8,860.9 939.8,829.4 340.2,829.4 340.2,860.9 371.7,860.9 
			371.7,892.5 308.6,892.5 308.6,797.8 971.4,797.8 		"/>
	</g>
</g>
</svg>
