<?xml version="1.0" encoding="utf-8"?>
<!-- Generator: Adobe Illustrator 23.0.3, SVG Export Plug-In . SVG Version: 6.00 Build 0)  -->
<svg version="1.1" id="Capa_1" xmlns="http://www.w3.org/2000/svg" xmlns:xlink="http://www.w3.org/1999/xlink" x="0px" y="0px"
	 viewBox="0 0 1280 1280" style="enable-background:new 0 0 1280 1280;" xml:space="preserve">
<style type="text/css">
	.st0{fill:#363F40;}
</style>
<g>
	<g>
		<g>
			<path class="st0" d="M1136.6,1051H143.4c-28.3,0-51.4-23-51.4-51.4V759.9c0-28.3,23-51.4,51.4-51.4h993.3
				c28.3,0,51.4,23,51.4,51.4v239.8C1188,1028,1165,1051,1136.6,1051z M143.4,742.8c-9.4,0-17.1,7.7-17.1,17.1v239.8
				c0,9.4,7.7,17.1,17.1,17.1h993.3c9.4,0,17.1-7.7,17.1-17.1V759.9c0-9.4-7.7-17.1-17.1-17.1H143.4z"/>
			<path class="st0" d="M263.3,948.3c-37.8,0-68.5-30.7-68.5-68.5s30.7-68.5,68.5-68.5s68.5,30.7,68.5,68.5S301,948.3,263.3,948.3z
				 M263.3,845.5c-18.9,0-34.3,15.4-34.3,34.3s15.4,34.3,34.3,34.3s34.3-15.4,34.3-34.3S282.1,845.5,263.3,845.5z"/>
			<path class="st0" d="M434.5,948.3c-37.8,0-68.5-30.7-68.5-68.5s30.7-68.5,68.5-68.5S503,842,503,879.8S472.3,948.3,434.5,948.3z
				 M434.5,845.5c-18.9,0-34.3,15.4-34.3,34.3s15.4,34.3,34.3,34.3s34.3-15.4,34.3-34.3S453.4,845.5,434.5,845.5z"/>
			<path class="st0" d="M605.8,948.3c-37.8,0-68.5-30.7-68.5-68.5s30.7-68.5,68.5-68.5s68.5,30.7,68.5,68.5S643.5,948.3,605.8,948.3
				z M605.8,845.5c-18.9,0-34.3,15.4-34.3,34.3s15.4,34.3,34.3,34.3s34.3-15.4,34.3-34.3S624.6,845.5,605.8,845.5z"/>
			<path class="st0" d="M777,948.3c-37.8,0-68.5-30.7-68.5-68.5s30.7-68.5,68.5-68.5s68.5,30.7,68.5,68.5S814.8,948.3,777,948.3z
				 M777,845.5c-18.9,0-34.3,15.4-34.3,34.3S758.1,914,777,914s34.3-15.4,34.3-34.3S795.9,845.5,777,845.5z"/>
			<rect x="914" y="828.4" class="st0" width="34.3" height="34.3"/>
			<rect x="982.5" y="828.4" class="st0" width="34.3" height="34.3"/>
			<rect x="1051" y="828.4" class="st0" width="34.3" height="34.3"/>
			<rect x="914" y="896.9" class="st0" width="34.3" height="34.3"/>
			<rect x="982.5" y="896.9" class="st0" width="34.3" height="34.3"/>
			<rect x="1051" y="896.9" class="st0" width="34.3" height="34.3"/>
			<path class="st0" d="M691.4,742.8H588.6V246.1c0-28.3,23-51.4,51.4-51.4s51.4,23,51.4,51.4V742.8z M622.9,708.5h34.3V246.1
				c0-9.4-7.7-17.1-17.1-17.1s-17.1,7.7-17.1,17.1V708.5z"/>
			<rect x="160.5" y="1033.9" class="st0" width="34.3" height="51.4"/>
			<rect x="229" y="1033.9" class="st0" width="34.3" height="51.4"/>
			<rect x="1016.8" y="1033.9" class="st0" width="34.3" height="51.4"/>
			<rect x="1085.3" y="1033.9" class="st0" width="34.3" height="51.4"/>
			<path class="st0" d="M143.4,674.3h-34.3c0-245.5,199.7-445.3,445.3-445.3v34.3C327.8,263.3,143.4,447.6,143.4,674.3z"/>
			<path class="st0" d="M211.9,674.3h-34.3c0-207.7,169-376.8,376.8-376.8v34.3C365.5,331.8,211.9,485.4,211.9,674.3z"/>
			<path class="st0" d="M280.4,674.3h-34.3c0-170,138.3-308.3,308.3-308.3v34.3C403.3,400.3,280.4,523.2,280.4,674.3z"/>
			<path class="st0" d="M1170.9,674.3h-34.3c0-226.6-184.4-411-411-411V229C971.1,229,1170.9,428.7,1170.9,674.3z"/>
			<path class="st0" d="M1102.4,674.3h-34.3c0-188.9-153.6-342.5-342.5-342.5v-34.3C933.4,297.5,1102.4,466.5,1102.4,674.3z"/>
			<path class="st0" d="M1033.9,674.3h-34.3c0-151.1-122.9-274-274-274V366C895.6,366,1033.9,504.3,1033.9,674.3z"/>
			<path class="st0" d="M348.9,674.3h-34.3c0-132.2,107.5-239.8,239.8-239.8v34.3C441.1,468.8,348.9,560.9,348.9,674.3z"/>
			<path class="st0" d="M417.4,674.3h-34.3c0-94.4,76.8-171.3,171.3-171.3v34.3C478.8,537.3,417.4,598.7,417.4,674.3z"/>
			<path class="st0" d="M965.4,674.3h-34.3c0-113.3-92.2-205.5-205.5-205.5v-34.3C857.8,434.5,965.4,542,965.4,674.3z"/>
			<path class="st0" d="M896.9,674.3h-34.3c0-75.5-61.5-137-137-137V503C820.1,503,896.9,579.8,896.9,674.3z"/>
		</g>
		<path class="st0" d="M485.9,674.3h-34.3c0-56.7,46.1-102.8,102.8-102.8v34.3C516.6,605.8,485.9,636.5,485.9,674.3z"/>
		<path class="st0" d="M828.4,674.3h-34.3c0-37.8-30.7-68.5-68.5-68.5v-34.3C782.3,571.5,828.4,617.6,828.4,674.3z"/>
	</g>
</g>
</svg>
