<?xml version="1.0" encoding="utf-8"?>
<!-- Generator: Adobe Illustrator 23.0.3, SVG Export Plug-In . SVG Version: 6.00 Build 0)  -->
<svg version="1.1" id="Capa_1" xmlns="http://www.w3.org/2000/svg" xmlns:xlink="http://www.w3.org/1999/xlink" x="0px" y="0px"
	 viewBox="0 0 1280 1280" style="enable-background:new 0 0 1280 1280;" xml:space="preserve">
<style type="text/css">
	.st0{fill:#363F40;}
</style>
<path class="st0" d="M447.3,1156c-0.4,0-0.8,0-1.2,0H435l11.2,0H447.3z"/>
<g>
	<path class="st0" d="M1014.6,295.8c-12.1,0-21.9,9.8-21.9,21.9c0,12.1,9.8,21.9,21.9,21.9c12.1,0,21.9-9.8,21.9-21.9
		C1036.5,305.6,1026.6,295.8,1014.6,295.8z"/>
	<path class="st0" d="M1020.6,1062.3c-12.1-7.4-24.2-12.2-32.7-15V1009c0-8.3-6.8-15.1-15.1-15.1c-8.3,0-15.1,6.8-15.1,15.1v49.6
		c0,7.1,4.9,13.2,11.8,14.7c0.2,0,18.3,4.2,35.9,15.1c15.8,9.8,25.8,21.7,29.9,35.4h-95.3c-13.1,0-24.9-8.3-29.2-20.7L823,854.7
		c-2.8-7.8-11.3-11.9-19.2-9.2c-7.8,2.7-12,11.3-9.3,19.1c6.3,18.5,9.6,39.1,9.6,61.4c0,44-21.7,75-66.4,94.5
		c-38.5,16.9-83.1,19.6-100.4,20c-8.3,0.2-14.8,7-14.7,15.2c0.1,8.3,6.8,14.9,15.1,14.9h118.7c23.6,0,41.5,6.3,53.3,18.7
		c10.1,10.7,14.2,24.3,15.8,34.4H502.6c-24.8,0-47.3-9.9-66.8-29.4c-2.6-2.6-6-4.1-9.6-4.4c-98.1-7.1-217.2-96.8-244.7-249.2
		c-1.5-8.2-9.3-13.6-17.5-12.2c-8.2,1.5-13.6,9.3-12.2,17.5c13.5,75.1,48.8,141.8,101.9,192.9c48.3,46.5,106.6,74.9,164.8,80.5
		c24.2,22.4,53.1,34.3,84,34.3h338.8c7.9,0,14.5-6.2,15-14.1c0.1-1.7,2.5-41.8-24.7-70.9c-16.1-17.2-38.5-26.7-66.8-28.2
		c33.6-18.5,55.4-44.8,64.5-77.6l53.1,150c8.6,24.4,31.8,40.8,57.7,40.8h112.5c8.3,0,15.1-6.8,15.1-15.1
		C1067.8,1107.7,1051.5,1081.2,1020.6,1062.3z"/>
	<path class="st0" d="M175.4,783c-4.4-118,46.9-185.9,90.6-222.2c55.7-46.2,116.2-57.9,118.7-58.4c9.5-1.8,18.6,4.5,20.3,13.9
		c1.8,9.4-4.5,18.6-14.1,20.4c-2.3,0.5-56.3,11.5-104.8,52.6c-63.6,53.9-87.9,132.8-72.2,234.5c13.4,86.6,60.8,147.9,140.7,182.3
		c8.6,3.7,18.8,9.5,27.3,2.3c4.2-3.5,6.1-9.1,5.1-14.4c-28.9-147,53.2-253.8,141.6-290.9c35.9-15.1,68.1-32.4,95.8-51.6
		c6.8-4.7,8.5-14.1,3.8-21c-4.7-6.8-14.1-8.5-21-3.8c-25.9,18-56.3,34.3-90.2,48.6C386.5,729.9,342,862,353.4,972.1
		c-61.8-30.9-98.6-82.3-109.5-153c-14-90.6,6.8-160.2,61.9-206.9c42.2-35.7,90.7-45.9,91-46c25.8-4.8,42.8-29.8,38-55.5
		c-4.8-25.8-29.7-42.8-55.5-38c-2.9,0.5-70.8,13.7-132.4,64.8c-49,40.6-106.4,116.3-101.5,246.5c0.3,8.3,7.4,14.8,15.6,14.5
		C169.2,798.3,175.7,791.3,175.4,783z"/>
	<path class="st0" d="M1134.9,354.9c-0.1-1-0.1-2.1-0.2-3.1c-0.6-4.7-2.5-9.9-6.1-16.5c-0.1-0.2-0.2-0.3-0.3-0.5
		c-7.8-14.6-58.4-80.3-61.4-84.6c-12.6-18-54-26.3-80.8-29.9V141c0-9.3-8.6-16.5-17.8-14.8c-4,0.7-97.3,18.5-128.1,107.3
		c-19.1,9-69.5,39.3-87.6,115.1c-2.9,12-5.2,25.1-7.7,39c-10.7,60.1-24,135-92.9,202.3c-6,5.8-6.1,15.4-0.2,21.3
		c5.8,6,15.4,6.1,21.3,0.2c27.6-26.9,47-55.1,61.2-83.1c88.9,61.3,178,73.5,234.6,73.5c4.2,0,8.3-0.1,12.1-0.2
		c3.5,6.7,6.9,12.6,9.5,17.1l1.7,3c2.8,4.9,67.4,121.4-31.2,242.4c-2.2,2.7-3.4,6.1-3.4,9.5v75.1c0,8.3,6.8,15.1,15.1,15.1
		c8.3,0,15.1-6.8,15.1-15.1v-69.8c41-52,60.5-109.3,57.8-170.3c-2.4-56-23-94.6-27.1-101.8l-1.8-3.1c-8.7-15.1-30.7-53.1-25.7-78.2
		c0-0.1,0.1-0.2,0.1-0.3c0.5-2.3,1.2-4.6,2.2-6.7c4.9-10.2,17.1-16.9,36.3-19.9c43.9-6.9,75.9-32.1,92.6-72.9
		C1128.9,409.3,1136.1,369.4,1134.9,354.9z M747.1,500.4c5.1-13,9.3-25.8,12.8-38.3c29.4,26.4,92.6,68.4,200.5,74.4
		c0.5,11.8,3.4,23.9,7.5,35.2C914.5,571.5,830.4,559.6,747.1,500.4z M1024.9,468.8c-29.6,4.6-49.4,17-58.8,36.7
		c-0.2,0.3-0.3,0.7-0.4,1c-73.2-3.5-123.3-25-152.9-42.9c-23.7-14.3-38.2-28.6-44.7-35.8c2.5-12.3,4.6-24,6.6-35
		c2.4-13.4,4.7-26.2,7.3-37.3c18-75.4,73.1-95.8,75.4-96.6c4.6-1.6,8.2-5.3,9.6-10c16.5-55.5,63.1-79.1,89-88.1v72.7
		c0,7.7,5.9,14.2,13.6,15c32.9,3.3,67.5,12.3,72.6,18.8c3.5,4.9,9.2,12.3,16.4,21.5c9.1,11.7,26.8,34.2,37.5,50.4
		c-3,4.5-4.7,9.9-4.7,15.5c0,9.6,4.7,18.1,12,23.3C1098.9,415,1081.5,459.9,1024.9,468.8z"/>
</g>
</svg>
