<?xml version="1.0" encoding="utf-8"?>
<!-- Generator: Adobe Illustrator 23.1.0, SVG Export Plug-In . SVG Version: 6.00 Build 0)  -->
<svg version="1.1" id="Capa_1" xmlns="http://www.w3.org/2000/svg" xmlns:xlink="http://www.w3.org/1999/xlink" x="0px" y="0px"
	 viewBox="0 0 1280 1280" style="enable-background:new 0 0 1280 1280;" xml:space="preserve">
<style type="text/css">
	.st0{fill:#363F40;}
</style>
<path class="st0" d="M447.3,1156c-0.4,0-0.8,0-1.2,0H435h11.2H447.3z"/>
<g>
	<path class="st0" d="M1101.8,315.7c16.4,0,29.8-13.4,29.8-29.8v-30.8c0-16.4-13.4-29.8-29.8-29.8H178.2
		c-16.4,0-29.8,13.4-29.8,29.8v30.8c0,16.4,13.4,29.8,29.8,29.8h1v586.9h-16.4c-8,0-14.4,6.4-14.4,14.4s6.4,14.4,14.4,14.4h462.8
		v35.1c-17.9,6-30.8,22.9-30.8,42.8c0,24.9,20.3,45.2,45.2,45.2s45.2-20.3,45.2-45.2c0-19.9-12.9-36.8-30.8-42.8v-35.1h462.8
		c8,0,14.4-6.4,14.4-14.4s-6.4-14.4-14.4-14.4h-16.4V315.7H1101.8z M640,1025.8c-9,0-16.4-7.4-16.4-16.4s7.4-16.4,16.4-16.4
		c9,0,16.4,7.4,16.4,16.4S649,1025.8,640,1025.8z M1072,902.7H208V315.7H994c8,0,14.4-6.4,14.4-14.4c0-8-6.4-14.4-14.4-14.4H178.2
		c-0.5,0-1-0.4-1-1v-30.8c0-0.5,0.4-1,1-1h923.6c0.5,0,1,0.4,1,1v30.8c0,0.5-0.4,1-1,1h-46.2c-8,0-14.4,6.4-14.4,14.4
		c0,8,6.4,14.4,14.4,14.4h16.4V902.7z"/>
	<path class="st0" d="M301.3,639h30.8c8,0,14.4-6.4,14.4-14.4c0-8-6.4-14.4-14.4-14.4h-16.4v-32.8h125.1v32.8h-47.2
		c-8,0-14.4,6.4-14.4,14.4c0,8,6.4,14.4,14.4,14.4h61.6c8,0,14.4-6.4,14.4-14.4V563c0-8-6.4-14.4-14.4-14.4h-62.6v-32.8h231.9
		c8,0,14.4-6.4,14.4-14.4v-92.4c0-8-6.4-14.4-14.4-14.4H301.3c-8,0-14.4,6.4-14.4,14.4v92.4c0,8,6.4,14.4,14.4,14.4h62.6v32.8h-62.6
		c-8,0-14.4,6.4-14.4,14.4v61.6C286.9,632.6,293.4,639,301.3,639z M315.7,423.5h294.5v63.6H315.7V423.5z"/>
	<path class="st0" d="M978.7,579.4h-92.4c-8,0-14.4,6.4-14.4,14.4v61.6c0,8,6.4,14.4,14.4,14.4h31.8v32.8h-78
		c-8,0-14.4,6.4-14.4,14.4v92.4c0,8,6.4,14.4,14.4,14.4h138.5c8,0,14.4-6.4,14.4-14.4V717c0-8-6.4-14.4-14.4-14.4h-31.8v-32.8h31.8
		c8,0,14.4-6.4,14.4-14.4v-61.6C993.1,585.9,986.6,579.4,978.7,579.4z M964.3,794.9H854.5v-63.6h109.7V794.9z M964.3,641h-63.6
		v-32.8h63.6L964.3,641L964.3,641z"/>
	<path class="st0" d="M968.5,383.5l-66.8,66.8l-36-36c-5.6-5.6-14.7-5.6-20.4,0c-5.6,5.6-5.6,14.7,0,20.4l46.2,46.2
		c2.8,2.8,6.5,4.2,10.2,4.2s7.4-1.4,10.2-4.2l77-77c5.6-5.6,5.6-14.7,0-20.4C983.2,377.9,974.1,377.9,968.5,383.5z"/>
	<path class="st0" d="M834.9,491.3c-3.6-3.6-8.8-5-13.7-3.8l-87.1,21.8c-7.7,1.9-12.4,9.7-10.5,17.5c1.9,7.7,9.7,12.4,17.5,10.5
		l36.6-9.2L564.5,741.3c-14.7,14.7-34.3,22.8-55.1,22.8H391c-6.5-26.5-30.4-46.2-58.8-46.2c-33.4,0-60.6,27.2-60.6,60.6
		s27.2,60.6,60.6,60.6c28.4,0,52.4-19.7,58.8-46.2h118.4c28.5,0,55.3-11.1,75.5-31.3l213.3-213.3L789,585
		c-1.9,7.7,2.8,15.5,10.5,17.5c1.2,0.3,2.3,0.4,3.5,0.4c6.5,0,12.3-4.4,14-10.9l21.8-87.1C839.9,500,838.5,494.9,834.9,491.3z
		 M332.1,810.3c-17.5,0-31.8-14.3-31.8-31.8s14.3-31.8,31.8-31.8c17.5,0,31.8,14.3,31.8,31.8S349.7,810.3,332.1,810.3z"/>
	<path class="st0" d="M639,563c0-8-6.4-14.4-14.4-14.4H516.9c-8,0-14.4,6.4-14.4,14.4s6.4,14.4,14.4,14.4h107.8
		C632.6,577.4,639,571,639,563z"/>
	<path class="st0" d="M778.5,718h-46.2c-8,0-14.4,6.4-14.4,14.4s6.4,14.4,14.4,14.4h46.2c8,0,14.4-6.4,14.4-14.4
		S786.5,718,778.5,718z"/>
	<path class="st0" d="M778.5,779.5H670.8c-8,0-14.4,6.4-14.4,14.4c0,8,6.4,14.4,14.4,14.4h107.8c8,0,14.4-6.4,14.4-14.4
		C792.9,786,786.5,779.5,778.5,779.5z"/>
	<path class="st0" d="M516.9,610.2c-8,0-14.4,6.4-14.4,14.4c0,8,6.4,14.4,14.4,14.4H563c8,0,14.4-6.4,14.4-14.4
		c0-8-6.4-14.4-14.4-14.4H516.9z"/>
</g>
</svg>
