<?xml version="1.0" encoding="utf-8"?>
<!-- Generator: Adobe Illustrator 23.1.0, SVG Export Plug-In . SVG Version: 6.00 Build 0)  -->
<svg version="1.1" id="Capa_1" xmlns="http://www.w3.org/2000/svg" xmlns:xlink="http://www.w3.org/1999/xlink" x="0px" y="0px"
	 viewBox="0 0 1280 1280" style="enable-background:new 0 0 1280 1280;" xml:space="preserve">
<style type="text/css">
	.st0{fill:#363F40;}
</style>
<path class="st0" d="M447.3,1156c-0.4,0-0.8,0-1.2,0H435h11.2H447.3z"/>
<g>
	<path class="st0" d="M1104.8,476.7h-69.2c-8.9-19.1-20.8-36.8-35.5-52.5c-5.3-5.7-14.2-6-19.8-0.7c-5.7,5.3-6,14.2-0.7,19.8
		c30.3,32.5,46.9,74.8,46.9,119.2c0,96.5-78.5,174.9-174.9,174.9c-96.5,0-174.9-78.5-174.9-174.9c0-96.4,78.5-174.9,174.9-174.9
		c28.1,0,54.9,6.4,79.7,19.1c6.9,3.5,15.3,0.8,18.9-6.1c3.5-6.9,0.8-15.3-6.1-18.9c-28.8-14.8-59.9-22.2-92.4-22.2
		c-81.3,0-151.5,48-183.9,117.2H463.4c-7.7,0-14,6.3-14,14s6.3,14,14,14H657c-5.4,18.3-8.4,37.7-8.4,57.8c0,111.9,91.1,203,203,203
		s203-91.1,203-203c0-19.8-2.9-39.2-8.4-57.8h44.5v312H189.2v-312h208.7c7.8,0,14-6.3,14-14c0-7.7-6.3-14-14-14h-31.1V434
		c0-7.7-6.3-14-14-14H239.4c-7.8,0-14,6.3-14,14v42.7h-50.2c-7.8,0-14,6.3-14,14v340.1c0,7.7,6.3,14,14,14h46.4v61.5
		c0,7.7,6.3,14,14,14h75.6c5.3,0,10.2-3,12.5-7.8l33.9-67.8h564.6l33.9,67.8c2.4,4.7,7.2,7.8,12.5,7.8h75.6c7.8,0,14-6.3,14-14
		v-61.5h46.4c7.8,0,14-6.3,14-14V490.7C1118.8,483,1112.6,476.7,1104.8,476.7z M253.5,448.1h85.3v28.6h-85.3V448.1z M302.6,892.4
		h-52.9v-47.5h76.6L302.6,892.4z M1030.3,892.4h-52.9l-23.8-47.5h76.6V892.4z"/>
	<path class="st0" d="M705.3,562.5c0,80.7,65.6,146.3,146.3,146.3c80.7,0,146.3-65.6,146.3-146.3c0-80.7-65.6-146.3-146.3-146.3
		C771,416.2,705.3,481.9,705.3,562.5z M969.9,562.5c0,65.2-53,118.2-118.2,118.2c-65.2,0-118.2-53-118.2-118.2s53-118.2,118.2-118.2
		C916.8,444.3,969.9,497.3,969.9,562.5z"/>
	<path class="st0" d="M518,600.3c0-7.8-6.3-14-14-14H239.4c-7.8,0-14,6.3-14,14V657c0,7.7,6.3,14,14,14H504c7.7,0,14-6.3,14-14
		V600.3z M489.9,643H253.5v-28.6h236.5V643z"/>
	<path class="st0" d="M504,699.7H239.4c-7.8,0-14,6.3-14,14v56.7c0,7.7,6.3,14,14,14H504c7.7,0,14-6.3,14-14v-56.7
		C518,705.9,511.7,699.7,504,699.7z M489.9,756.3H253.5v-28.6h236.5V756.3z"/>
	<path class="st0" d="M613.5,784.4c7.8,0,14-6.3,14-14v-56.7c0-7.7-6.3-14-14-14h-56.7c-7.7,0-14,6.3-14,14v56.7c0,7.7,6.3,14,14,14
		H613.5z M570.9,727.7h28.6v28.6h-28.6V727.7z"/>
</g>
</svg>
