<?xml version="1.0" encoding="utf-8"?>
<!-- Generator: Adobe Illustrator 23.0.3, SVG Export Plug-In . SVG Version: 6.00 Build 0)  -->
<svg version="1.1" id="Capa_1" xmlns="http://www.w3.org/2000/svg" xmlns:xlink="http://www.w3.org/1999/xlink" x="0px" y="0px"
	 viewBox="0 0 1280 1280" style="enable-background:new 0 0 1280 1280;" xml:space="preserve">
<style type="text/css">
	.st0{fill:#363F40;}
</style>
<g>
	<g>
		<path class="st0" d="M365,708.7h-17.2c-37.9,0-68.7-30.8-68.7-68.7h34.4c0,19,15.4,34.4,34.4,34.4H365c19,0,34.4-15.4,34.4-34.4
			v-17.2c-1.2-3.5-13.6-13.3-24.9-19l-1.8-1.1L322,568.9c-11.3-5.8-42.9-24.2-42.9-49.2v-17.2c0-37.9,30.8-68.7,68.7-68.7H365
			c37.9,0,68.7,30.8,68.7,68.7h-34.4c0-19-15.4-34.4-34.4-34.4h-17.2c-19,0-34.4,15.4-34.4,34.4v17.2c1.2,3.5,13.6,13.3,24.9,19
			l1.8,1.1l50.7,33.8c11.3,5.8,42.9,24.2,42.9,49.2V640C433.8,677.9,402.9,708.7,365,708.7z"/>
		<g>
			<g>
				<path class="st0" d="M622.8,708.7h-34.4V502.5c0-19-15.4-34.4-34.4-34.4h-17.2c-19,0-34.4,15.4-34.4,34.4v206.2h-34.4V502.5
					c0-37.9,30.8-68.7,68.7-68.7h17.2c37.9,0,68.7,30.8,68.7,68.7V708.7z"/>
			</g>
			<rect x="485.3" y="588.4" class="st0" width="120.3" height="34.4"/>
		</g>
		<rect x="863.4" y="554.1" class="st0" width="103.1" height="34.4"/>
		<path class="st0" d="M1000.9,708.7H880.6c-19,0-34.4-15.4-34.4-34.4V468.1c0-19,15.4-34.4,34.4-34.4h120.3v34.4H880.6v206.2h120.3
			V708.7z"/>
		<path class="st0" d="M811.9,708.7H691.6c-19,0-34.4-15.4-34.4-34.4V433.8h34.4v240.6h120.3V708.7z"/>
	</g>
	<rect x="193.2" y="176" class="st0" width="68.7" height="34.4"/>
	<rect x="296.3" y="176" class="st0" width="68.7" height="34.4"/>
	<rect x="399.4" y="176" class="st0" width="68.7" height="34.4"/>
	<rect x="502.5" y="176" class="st0" width="68.7" height="34.4"/>
	<rect x="605.6" y="176" class="st0" width="68.7" height="34.4"/>
	<rect x="708.7" y="176" class="st0" width="68.7" height="34.4"/>
	<rect x="811.9" y="176" class="st0" width="68.7" height="34.4"/>
	<rect x="915" y="176" class="st0" width="68.7" height="34.4"/>
	<rect x="811.9" y="176" class="st0" width="68.7" height="34.4"/>
	<rect x="915" y="176" class="st0" width="68.7" height="34.4"/>
	<rect x="1018.1" y="176" class="st0" width="68.7" height="34.4"/>
	<rect x="1018.1" y="176" class="st0" width="68.7" height="34.4"/>
	<rect x="296.3" y="932.1" class="st0" width="68.7" height="34.4"/>
	<rect x="502.5" y="932.1" class="st0" width="68.7" height="34.4"/>
	<rect x="605.6" y="932.1" class="st0" width="68.7" height="34.4"/>
	<rect x="708.7" y="932.1" class="st0" width="68.7" height="34.4"/>
	<rect x="811.9" y="932.1" class="st0" width="68.7" height="34.4"/>
	<rect x="915" y="932.1" class="st0" width="68.7" height="34.4"/>
	<rect x="1018.1" y="932.1" class="st0" width="68.7" height="34.4"/>
	<polygon class="st0" points="124.4,244.7 90.1,244.7 90.1,176 158.8,176 158.8,210.4 124.4,210.4 	"/>
	<polygon class="st0" points="1189.9,244.7 1155.6,244.7 1155.6,210.4 1121.2,210.4 1121.2,176 1189.9,176 	"/>
	<polygon class="st0" points="1189.9,966.5 1121.2,966.5 1121.2,932.1 1155.6,932.1 1155.6,897.8 1189.9,897.8 	"/>
	<rect x="90.1" y="279.1" class="st0" width="34.4" height="68.7"/>
	<rect x="90.1" y="485.3" class="st0" width="34.4" height="68.7"/>
	<rect x="90.1" y="588.4" class="st0" width="34.4" height="68.7"/>
	<rect x="90.1" y="691.6" class="st0" width="34.4" height="68.7"/>
	<rect x="1155.6" y="279.1" class="st0" width="34.4" height="68.7"/>
	<rect x="1155.6" y="485.3" class="st0" width="34.4" height="68.7"/>
	<rect x="1155.6" y="382.2" class="st0" width="34.4" height="68.7"/>
	<rect x="90.1" y="382.2" class="st0" width="34.4" height="68.7"/>
	<rect x="1155.6" y="588.4" class="st0" width="34.4" height="68.7"/>
	<rect x="1155.6" y="691.6" class="st0" width="34.4" height="68.7"/>
	<rect x="1155.6" y="794.7" class="st0" width="34.4" height="68.7"/>
	<g>
		<path class="st0" d="M158.8,932.1c-37.9,0-68.7-30.8-68.7-68.7s30.8-68.7,68.7-68.7s68.7,30.8,68.7,68.7S196.7,932.1,158.8,932.1z
			 M158.8,829c-19,0-34.4,15.4-34.4,34.4s15.4,34.4,34.4,34.4s34.4-15.4,34.4-34.4S177.8,829,158.8,829z"/>
		<path class="st0" d="M158.8,1104c-37.9,0-68.7-30.8-68.7-68.7s30.8-68.7,68.7-68.7s68.7,30.8,68.7,68.7S196.7,1104,158.8,1104z
			 M158.8,1000.9c-19,0-34.4,15.4-34.4,34.4c0,19,15.4,34.4,34.4,34.4s34.4-15.4,34.4-34.4C193.2,1016.3,177.8,1000.9,158.8,1000.9z
			"/>
		
			<rect x="356.4" y="786.5" transform="matrix(0.501 -0.8654 0.8654 0.501 -657.4592 809.894)" class="st0" width="34.4" height="377.3"/>
		
			<rect x="185" y="906.4" transform="matrix(0.8654 -0.5011 0.5011 0.8654 -412.4813 311.5233)" class="st0" width="377.3" height="34.4"/>
	</g>
	<rect x="1052.4" y="554.1" class="st0" width="34.4" height="34.4"/>
	<rect x="193.2" y="554.1" class="st0" width="34.4" height="34.4"/>
</g>
</svg>
