<?xml version="1.0" encoding="utf-8"?>
<!-- Generator: Adobe Illustrator 23.0.3, SVG Export Plug-In . SVG Version: 6.00 Build 0)  -->
<svg version="1.1" id="Capa_1" xmlns="http://www.w3.org/2000/svg" xmlns:xlink="http://www.w3.org/1999/xlink" x="0px" y="0px"
	 viewBox="0 0 1280 1280" style="enable-background:new 0 0 1280 1280;" xml:space="preserve">
<style type="text/css">
	.st0{fill:#363F40;}
</style>
<g>
	<g>
		<g>
			<g>
				<path class="st0" d="M269.6,951.8l-28.7-14.3c2.1-4.2,52.6-103.4,139.4-120.8l109.8-31.4c18-8.4,37.6-23.7,37.6-33v-80.2h32.1
					v80.2c0,35.2-48,58.4-57.6,62.7c-0.7,0.3-1.4,0.6-2.1,0.8l-112.2,32.1C315,862.4,270,950.9,269.6,951.8z"/>
				<path class="st0" d="M1010.4,951.8c-0.4-0.9-45.7-89.4-117.1-103.7l-113.5-32.4c-0.7-0.2-1.4-0.5-2.1-0.8
					c-9.6-4.3-57.6-27.6-57.6-62.7v-80.2h32.1v80.2c0,10.2,21.9,25.7,37.6,33L900.9,817c85.6,17.1,136.1,116.3,138.2,120.5
					L1010.4,951.8z"/>
				<path class="st0" d="M640,736.2c-110.1,0-160.3-124.6-160.3-240.5v-48.1c0-29.8,20.5-55,48.1-62.1v-34.1
					c0-5.6,2.9-10.7,7.6-13.6c4.7-2.9,10.6-3.2,15.6-0.7l92.8,46.4h92.4c35.4,0,64.1,28.8,64.1,64.1v48.1
					C800.3,611.5,750.1,736.2,640,736.2z M559.8,377.4v22.2c0,8.9-7.2,16-16,16c-17.7,0-32.1,14.4-32.1,32.1v48.1
					c0,100.4,40.1,208.4,128.3,208.4s128.3-108,128.3-208.4v-48.1c0-17.7-14.4-32.1-32.1-32.1H640c-2.5,0-4.9-0.6-7.2-1.7
					L559.8,377.4z"/>
				<path class="st0" d="M672.1,880.5h-64.1c-4.3,0-8.3-1.7-11.3-4.7l-59.4-59.4h-41.5v-32.1h48.1c4.3,0,8.3,1.7,11.3,4.7l59.4,59.4
					h50.8l59.4-59.4c3-3,7.1-4.7,11.3-4.7h48.1v32.1h-41.5l-59.4,59.4C680.4,878.8,676.3,880.5,672.1,880.5z"/>
				<rect x="624" y="992.7" class="st0" width="32.1" height="32.1"/>
				<rect x="624" y="928.6" class="st0" width="32.1" height="32.1"/>
				<rect x="624" y="1056.8" class="st0" width="32.1" height="32.1"/>
				<rect x="720.2" y="960.6" class="st0" width="128.3" height="32.1"/>
				<path class="st0" d="M864.4,415.6h-32.1v-16c0-74.1-56.2-135.4-128.3-143.4v15.1c0,5.2-2.5,10-6.7,13c-4.2,3-9.6,3.8-14.4,2.2
					l-93.7-31.2c-78.4,1.4-141.7,65.5-141.7,144.3v16h-32.1v-16c0-97.2,79.1-176.3,176.3-176.3c1.7,0,3.4,0.3,5.1,0.8l75.1,25v-9.8
					c0-8.9,7.2-16,16-16c97.2,0,176.3,79.1,176.3,176.3V415.6z"/>
			</g>
			<path class="st0" d="M479.7,607.9c-61.9,0-112.2-50.3-112.2-112.2s50.3-112.2,112.2-112.2v32.1c-44.2,0-80.2,36-80.2,80.2
				s36,80.2,80.2,80.2V607.9z"/>
			<path class="st0" d="M800.3,607.9v-32.1c44.2,0,80.2-36,80.2-80.2s-36-80.2-80.2-80.2v-32.1c61.9,0,112.2,50.3,112.2,112.2
				S862.2,607.9,800.3,607.9z"/>
			<path class="st0" d="M832.4,672.1H656c-26.5,0-48.1-21.6-48.1-48.1H640c0,8.8,7.2,16,16,16h176.3c8.8,0,16-7.2,16-16v-64.1h32.1
				V624C880.5,650.5,858.9,672.1,832.4,672.1z"/>
		</g>
		<path class="st0" d="M640,1153c-282.9,0-513-230.1-513-513s230.1-513,513-513s513,230.1,513,513S922.9,1153,640,1153z M640,159.1
			c-265.2,0-480.9,215.7-480.9,480.9s215.7,480.9,480.9,480.9s480.9-215.7,480.9-480.9S905.2,159.1,640,159.1z"/>
	</g>
</g>
</svg>
