<?xml version="1.0" encoding="utf-8"?>
<!-- Generator: Adobe Illustrator 23.0.3, SVG Export Plug-In . SVG Version: 6.00 Build 0)  -->
<svg version="1.1" id="Capa_1" xmlns="http://www.w3.org/2000/svg" xmlns:xlink="http://www.w3.org/1999/xlink" x="0px" y="0px"
	 viewBox="0 0 1280 1280" style="enable-background:new 0 0 1280 1280;" xml:space="preserve">
<style type="text/css">
	.st0{fill:#363F40;}
</style>
<g>
	<g>
		<path class="st0" d="M640,316.9c-53.5,0-96.9-43.5-96.9-96.9S586.5,123,640,123s96.9,43.5,96.9,96.9S693.5,316.9,640,316.9z
			 M640,155.3c-35.6,0-64.6,29-64.6,64.6s29,64.6,64.6,64.6s64.6-29,64.6-64.6S675.6,155.3,640,155.3z"/>
		<path class="st0" d="M219.9,316.9c-53.5,0-96.9-43.5-96.9-96.9s43.5-96.9,96.9-96.9s96.9,43.5,96.9,96.9S273.4,316.9,219.9,316.9z
			 M219.9,155.3c-35.6,0-64.6,29-64.6,64.6s29,64.6,64.6,64.6s64.6-29,64.6-64.6S255.6,155.3,219.9,155.3z"/>
		<path class="st0" d="M833.9,591.5h-32.3V462.3c0-44.5-36.2-80.8-80.8-80.8H559.2c-44.5,0-80.8,36.2-80.8,80.8v129.3h-32.3V462.3
			c0-62.4,50.7-113.1,113.1-113.1h161.6c62.4,0,113.1,50.7,113.1,113.1V591.5z"/>
		<path class="st0" d="M963.1,720.8H316.9v-96.9h646.3V720.8z M349.2,688.5h581.6v-32.3H349.2V688.5z"/>
		<path class="st0" d="M559.2,753.1v323.1c0,27.9-17.3,79.8-81.2,79.8h-0.6h-31.3c0.4,0,0.8,0,1.2,0h-1.1l-11.2,0l-4-9v-0.4
			L322.2,882.3H219.9c-53.5,0-96.9-43.5-96.9-96.9V413.8c0-35.6,29-64.6,64.6-64.6h32.3c71.3,0,129.3,58,129.3,129.3v113.1h-32.3
			V478.4c0-53.5-43.5-96.9-96.9-96.9h-32.3c-17.8,0-32.3,14.5-32.3,32.3v371.6c0,35.6,29,64.6,64.6,64.6H333c6.5,0,12.4,4,14.9,10
			l108.7,264l22,0.6c45.4-0.1,48.1-40.5,48.2-48.6v-323H559.2z"/>
		<path class="st0" d="M447.3,1156c-0.4,0-0.8,0-1.2,0l0,0H447.3z"/>
		<path class="st0" d="M1060.1,316.9c-53.5,0-96.9-43.5-96.9-96.9s43.5-96.9,96.9-96.9s96.9,43.5,96.9,96.9
			S1113.5,316.9,1060.1,316.9z M1060.1,155.3c-35.6,0-64.6,29-64.6,64.6s29,64.6,64.6,64.6s64.6-29,64.6-64.6
			S1095.7,155.3,1060.1,155.3z"/>
		<path class="st0" d="M833.9,1157h-32.3c-63.9,0-80.8-52.8-80.8-80.8V753.1h32.3v323.1c0.1,8,2.9,48.5,48.5,48.5h21.5L932,860
			c2.5-6.1,8.4-10,14.9-10h113.1c35.6,0,64.6-29,64.6-64.6V413.8c0-17.8-14.5-32.3-32.3-32.3h-32.3c-53.5,0-96.9,43.5-96.9,96.9
			v113.1h-32.3V478.4c0-71.3,58-129.3,129.3-129.3h32.3c35.6,0,64.6,29,64.6,64.6v371.6c0,53.5-43.5,96.9-96.9,96.9H957.8
			l-109,264.7C846.3,1153,840.4,1157,833.9,1157z"/>
		<rect x="623.8" y="753.1" class="st0" width="32.3" height="403.9"/>
		<rect x="623.8" y="413.8" class="st0" width="32.3" height="32.3"/>
		<rect x="623.8" y="478.4" class="st0" width="32.3" height="32.3"/>
	</g>
</g>
<path class="st0" d="M447.3,1156c-0.4,0-0.8,0-1.2,0H435l11.2,0H447.3z"/>
</svg>
