<?xml version="1.0" encoding="utf-8"?>
<!-- Generator: Adobe Illustrator 23.1.0, SVG Export Plug-In . SVG Version: 6.00 Build 0)  -->
<svg version="1.1" id="Capa_1" xmlns="http://www.w3.org/2000/svg" xmlns:xlink="http://www.w3.org/1999/xlink" x="0px" y="0px"
	 viewBox="0 0 1280 1280" style="enable-background:new 0 0 1280 1280;" xml:space="preserve">
<style type="text/css">
	.st0{fill:#363F40;}
</style>
<path class="st0" d="M447.3,1156c-0.4,0-0.8,0-1.2,0H435h11.2H447.3z"/>
<g>
	<g>
		<g>
			<path class="st0" d="M494.9,220.9c-3.4-3.4-8.2-5.4-13.1-5.4c-4.9,0-9.7,2-13.1,5.4c-3.4,3.4-5.4,8.2-5.4,13.1
				c0,4.9,2,9.7,5.4,13.1c3.4,3.4,8.2,5.4,13.1,5.4c4.9,0,9.7-2,13.1-5.4c3.4-3.4,5.4-8.2,5.4-13.1
				C500.4,229.1,498.4,224.4,494.9,220.9z"/>
		</g>
	</g>
	<g>
		<g>
			<path class="st0" d="M1096,215.5H560.9c-10.2,0-18.5,8.3-18.5,18.5c0,10.2,8.3,18.5,18.5,18.5h516.6v151.7L739.4,742.4
				c-7.2,7.2-7.2,19,0,26.2c3.6,3.6,8.4,5.4,13.1,5.4s9.5-1.8,13.1-5.4l311.9-311.9v396.5h-875V252.6h198.4
				c10.2,0,18.5-8.3,18.5-18.5c0-10.2-8.3-18.5-18.5-18.5H184c-10.2,0-18.5,8.3-18.5,18.5v637.7c0,10.2,8.3,18.5,18.5,18.5h318.9v63
				H395.3c-10.2,0-18.5,8.3-18.5,18.5v55.6H271.4c-10.2,0-18.5,8.3-18.5,18.5s8.3,18.5,18.5,18.5h670.9c10.2,0,18.5-8.3,18.5-18.5
				s-8.3-18.5-18.5-18.5h-39v-55.6c0-10.2-8.3-18.5-18.5-18.5H777.2v-63H1096c10.2,0,18.5-8.3,18.5-18.5V234
				C1114.6,223.8,1106.3,215.5,1096,215.5z M539.9,890.3h200.2v63H539.9V890.3z M866.2,990.4v37.1H413.8v-37.1h107.5h237.3H866.2z"
				/>
		</g>
	</g>
	<g>
		<g>
			<path class="st0" d="M494.2,378.5c-7.2-7.2-19-7.2-26.2,0L303.9,542.5c-7.2,7.2-7.2,19,0,26.2c3.6,3.6,8.4,5.4,13.1,5.4
				c4.7,0,9.5-1.8,13.1-5.4l164.1-164.1C501.5,397.4,501.5,385.7,494.2,378.5z"/>
		</g>
	</g>
	<g>
		<g>
			<path class="st0" d="M277.8,594.9c-3.4-3.4-8.2-5.4-13.1-5.4c-4.9,0-9.7,2-13.1,5.4c-3.4,3.4-5.4,8.2-5.4,13.1
				c0,4.9,2,9.7,5.4,13.1c3.4,3.4,8.2,5.4,13.1,5.4c4.9,0,9.7-2,13.1-5.4s5.4-8.2,5.4-13.1S281.2,598.3,277.8,594.9z"/>
		</g>
	</g>
	<g>
		<g>
			<path class="st0" d="M1021.7,1032.9c-3.4-3.4-8.2-5.4-13.1-5.4c-4.9,0-9.7,2-13.1,5.4c-3.5,3.4-5.4,8.2-5.4,13.1s2,9.7,5.4,13.1
				c3.4,3.4,8.2,5.4,13.1,5.4c4.9,0,9.7-2,13.1-5.4c3.4-3.4,5.4-8.2,5.4-13.1S1025.2,1036.3,1021.7,1032.9z"/>
		</g>
	</g>
	<g>
		<g>
			<path class="st0" d="M602.4,465.7H498.6c-10.2,0-18.5,8.3-18.5,18.5s8.3,18.5,18.5,18.5h33.4V640c0,10.2,8.3,18.5,18.5,18.5
				S569,650.2,569,640V502.8h33.4c10.2,0,18.5-8.3,18.5-18.5C620.9,474,612.6,465.7,602.4,465.7z"/>
		</g>
	</g>
	<g>
		<g>
			<path class="st0" d="M787.3,466.7c-9.7-3.2-20.2,2-23.4,11.7l-34.3,103l-34.3-103c-3.2-9.7-13.7-15-23.4-11.7
				c-9.7,3.2-15,13.7-11.7,23.4l51.9,155.7c2.5,7.6,9.6,12.7,17.6,12.7c8,0,15.1-5.1,17.6-12.7L799,490.1
				C802.3,480.4,797,469.9,787.3,466.7z"/>
		</g>
	</g>
</g>
</svg>
